<svg xmlns="http://www.w3.org/2000/svg" xmlns:xlink="http://www.w3.org/1999/xlink" version="1.1" id="Layer_1" x="0px" y="0px" width="100px" height="100px" viewBox="0 0 100 100" enable-background="new 0 0 100 100" xml:space="preserve">
<path fill="#000000" d="M65.892,5H35v73h51V26.763L65.892,5z M65,9.498L80.51,26H65V9.498z M39,74V9h22v21h22v44H39z"/>
<rect x="45.624" y="23.001" fill="#000000" width="17.475" height="3.469"/>
<rect x="45.624" y="32.975" fill="#000000" width="30.288" height="3.469"/>
<rect x="45.624" y="42.948" fill="#000000" width="30.288" height="3.469"/>
<rect x="45.624" y="52.922" fill="#000000" width="30.288" height="3.47"/>
<rect x="45.624" y="62.896" fill="#000000" width="30.288" height="3.469"/>
<rect x="45.624" y="23.001" fill="#000000" width="17.475" height="3.469"/>
<polygon fill="#000000" points="72,78 72,83 28,83 28,17 35,17 35,14 24,14 24,86 75,86 75,78 "/>
<polygon fill="#000000" points="61,86 61,91 17,91 17,25 24,25 24,22 13,22 13,94 64,94 64,86 "/>
</svg>