<svg xmlns="http://www.w3.org/2000/svg" xmlns:xlink="http://www.w3.org/1999/xlink" version="1.1" id="Your_Icon" x="0px" y="0px" width="100px" height="100px" viewBox="0 0 100 100" enable-background="new 0 0 100 100" xml:space="preserve">
<g>
	<path d="M78.993,52.762c3.695-3.085,6.095-8.13,6.095-13.822c0-9.377-6.526-17-14.553-17c-5.092,0-9.583,3.076-12.19,7.717   c-1.801-10.671-9.818-18.735-19.41-18.735c-10.915,0-19.785,10.446-19.785,23.283c0,8.561,3.938,16.044,9.808,20.085   C15.099,58.556,5,71.487,5,86.734c0,1.294,1.041,2.344,2.344,2.344h63.191c1.294,0,2.344-1.05,2.344-2.344   c0-2.991-0.394-5.898-1.125-8.674h20.901c1.294,0,2.344-1.05,2.344-2.344C95,65.195,88.324,56.212,78.993,52.762z M70.536,26.628   c5.438,0,9.864,5.523,9.864,12.312c0,6.789-4.426,12.312-9.864,12.312c-5.439,0-9.865-5.523-9.865-12.312   C60.671,32.151,65.097,26.628,70.536,26.628z M62.078,52.762c-2.56,0.928-4.951,2.307-7.089,4.07   c-1.922-1.031-3.948-1.885-6.067-2.541c3.366-2.316,6.104-5.786,7.82-9.94C57.717,47.773,59.611,50.708,62.078,52.762z    M23.838,34.204c0-10.258,6.77-18.594,15.097-18.594c8.327,0,15.106,8.336,15.106,18.594c0,10.249-6.78,18.585-15.106,18.585   C30.609,52.79,23.838,44.453,23.838,34.204z M9.773,84.39c1.2-15.041,13.822-26.912,29.162-26.912   c15.341,0,27.962,11.871,29.162,26.912H9.773z M70.142,73.372c-2.382-5.523-6.18-10.305-10.943-13.859   c3.301-2.325,7.239-3.573,11.337-3.573c10.108,0,18.473,7.623,19.635,17.432H70.142z"/>
</g>
</svg>