<svg xmlns="http://www.w3.org/2000/svg" xmlns:xlink="http://www.w3.org/1999/xlink" version="1.1" id="Layer_1" x="0px" y="0px" viewBox="0 0 480 480" enable-background="new 0 0 480 480" xml:space="preserve" height="100px" width="100px">
<g id="entertainment">
	<path d="M270.2,107.5c-2.9,0-5.3-2.4-5.8-5.3c0,0-0.5-11.5-2.9-22.6c-2.9-13.9-10.1-22.6-10.1-22.6c-1.9-2.4-1.4-5.8,1-7.7   c2.4-1.9,5.8-1.4,7.7,1c0.5,0.5,8.6,10.6,12.5,27.4c2.4,12,2.9,24,2.9,24.5C276,105.1,273.6,107.5,270.2,107.5L270.2,107.5z"/>
	<path d="M323,295.7l-6.7-8.6c2.9-1.9,5.3-4.3,7.7-6.7c17.3-18.7,46.6-60,43.7-97.4c-3.4-46.1-30.7-60.5-52.8-63.8   c-20.2-3.4-28.3,1-35,4.3c-2.9,1.4-6.2,3.4-9.6,3.8h-1h-1c-3.8-0.5-6.7-2.4-9.6-3.8c-6.7-3.4-14.4-7.7-35-4.3   c-22.6,3.8-49.9,17.8-52.8,63.8c-1.9,28.8,15.4,59,25.4,74.4l-9.1,5.8c-11-16.3-29.8-49-27.4-81.6c3.8-56.2,40.8-70.6,62.4-74.4   c24-3.8,34.1,1.4,41.8,5.3c1.9,1,3.8,1.9,5.3,2.4c1.4-0.5,3.4-1.4,5.3-2.4c7.7-3.8,17.8-9.6,41.8-5.3c21.6,3.4,58.6,18.2,62.4,74.4   c1.4,18.2-3.8,38.4-14.9,60c-8.2,15.8-19.7,32.6-32.2,45.6C329.3,290.4,326.4,293.3,323,295.7z"/>
	<path d="M196.3,171.8l-11-2.9c1-2.9,1.9-6.2,2.9-8.6l10.1,4.3C197.8,166.6,196.8,169,196.3,171.8z M202.1,157.9l-9.1-6.2   c1.9-2.9,3.8-5.3,6.2-7.7l7.7,7.7C205,153.6,203.5,155.5,202.1,157.9z M212.2,147.4l-5.8-9.1c2.4-1.4,5.3-3.4,8.2-4.3l4.3,10.1   C216.5,145,214.6,146.4,212.2,147.4z M226.1,141.6l-2.9-10.6c2.9-1,5.8-1.4,8.6-1.9l1.9,11C231.4,140.2,228.5,141.1,226.1,141.6z"/>
	<g>
		<g>
			<path d="M195.8,353.8l-0.5-11c12-0.5,33.6-9.6,40.8-13l1-0.5h86.4c8.2,0,14.4-7.2,14.4-15.8c0-8.6-6.7-15.8-14.4-15.8h-89.8     l-1.4-2.9c-0.5-1-17.8-28.8-64.3-34.6c-52.8-6.7-86.9,15.8-86.9,16.3l0,0l-40.8,26.9l-6.7-9.1l40.8-26.9     c2.4-1.4,37.9-25.4,94.6-18.2c44.2,5.8,64.8,29.3,71,37h83.5c13.9,0,25.4,12,25.4,26.9s-11.5,26.9-25.4,26.9H240     C234.2,342.7,210.7,353.3,195.8,353.8z"/>
			<path d="M82.6,409.9l-6.2-9.1l39.4-26.4c1.9-1.4,11.5-7.7,25.9-4.8c9.1,1.9,76.3,13.4,77.3,13.4c0.5,0,34.6,5.3,44.6,5.3     c5.3,0,24.5-5.8,90.7-57.6c36-28.3,68.2-56.6,70.6-58.6c7.2-7.2,13.9-15.8,14.9-19.2c-3.4-3.4-12.5-9.1-28.3,0.5     c-19.2,11.5-75.4,44.6-75.8,45.1l-5.8-9.6c0.5-0.5,56.6-33.1,75.8-44.6c25.9-15.8,40.8-0.5,43.2,2.9c5.3,6.2-0.5,14.9-6.2,22.1     c-4.8,6.2-10.1,11-10.1,11.5l-0.5,0.5c0-0.5-33.6,28.8-70.6,58.1c-76.3,60-92.6,60-97.4,60c-11,0-45.1-5.3-46.6-5.3     c-2.9-0.5-68.2-11.5-77.8-13.4c-10.6-2.4-16.8,2.4-17.3,2.9l-0.5,0.5L82.6,409.9z"/>
			<path d="M344.6,271.7l-5.8-9.6c20.6-12,35.5-21.1,43.2-25.4c25.9-15.8,40.8-0.5,43.2,2.9l-8.6,7.2c-2.4-2.9-11.5-11-29.3-0.5     C377.8,252,356.6,264.5,344.6,271.7z"/>
			<path d="M385,242.9c-1.9-1.9-8.2-8.2-20.2-4.8l-3.4-10.6c14.4-4.3,25.9,1.4,31.7,8.2L385,242.9z"/>
		</g>
	</g>
	<path d="M288,97c-2.9,0-5.8,0-7.2-2.4c-1-1-1-2.4-1-3.8v-0.5c0-14.9,3.8-26.9,11.5-34.6c10.6-10.6,26.9-11.5,33.1-11.5   c1.4,0,2.4,0,2.9,0c2.9,0,4.8,2.4,5.3,5.3c0,1,1.4,22.6-11.5,36C309.6,96,293.3,97,288,97z M280.3,89.3c0,0.5,0,1-0.5,1   C279.8,90.2,279.8,89.8,280.3,89.3z M321.1,55.2c-5.8,0.5-15.8,1.9-22.1,8.2c-4.8,4.8-7.7,12.5-8.2,22.1c5.3-0.5,15.4-1.9,21.6-8.6   C319.2,71,320.6,61.4,321.1,55.2z"/>
</g>
<g id="grid" display="none">
	<g display="inline">
		<rect x="0" y="0" fill="#000000" stroke="#0079E9" stroke-width="1.000000e-02" stroke-miterlimit="10" width="120" height="120"/>
		<rect x="120" y="0" fill="#000000" stroke="#0079E9" stroke-width="1.000000e-02" stroke-miterlimit="10" width="120" height="120"/>
		<rect x="240" y="0" fill="#000000" stroke="#0079E9" stroke-width="1.000000e-02" stroke-miterlimit="10" width="120" height="120"/>
		<rect x="360" y="0" fill="#000000" stroke="#0079E9" stroke-width="1.000000e-02" stroke-miterlimit="10" width="120" height="120"/>
		<rect x="0" y="120" fill="#000000" stroke="#0079E9" stroke-width="1.000000e-02" stroke-miterlimit="10" width="120" height="120"/>
		
			<rect x="120" y="120" fill="#000000" stroke="#0079E9" stroke-width="1.000000e-02" stroke-miterlimit="10" width="120" height="120"/>
		
			<rect x="240" y="120" fill="#000000" stroke="#0079E9" stroke-width="1.000000e-02" stroke-miterlimit="10" width="120" height="120"/>
		
			<rect x="360" y="120" fill="#000000" stroke="#0079E9" stroke-width="1.000000e-02" stroke-miterlimit="10" width="120" height="120"/>
		<rect x="0" y="240" fill="#000000" stroke="#0079E9" stroke-width="1.000000e-02" stroke-miterlimit="10" width="120" height="120"/>
		
			<rect x="120" y="240" fill="#000000" stroke="#0079E9" stroke-width="1.000000e-02" stroke-miterlimit="10" width="120" height="120"/>
		
			<rect x="240" y="240" fill="#000000" stroke="#0079E9" stroke-width="1.000000e-02" stroke-miterlimit="10" width="120" height="120"/>
		
			<rect x="360" y="240" fill="#000000" stroke="#0079E9" stroke-width="1.000000e-02" stroke-miterlimit="10" width="120" height="120"/>
		<rect x="0" y="360" fill="#000000" stroke="#0079E9" stroke-width="1.000000e-02" stroke-miterlimit="10" width="120" height="120"/>
		
			<rect x="120" y="360" fill="#000000" stroke="#0079E9" stroke-width="1.000000e-02" stroke-miterlimit="10" width="120" height="120"/>
		
			<rect x="240" y="360" fill="#000000" stroke="#0079E9" stroke-width="1.000000e-02" stroke-miterlimit="10" width="120" height="120"/>
		
			<rect x="360" y="360" fill="#000000" stroke="#0079E9" stroke-width="1.000000e-02" stroke-miterlimit="10" width="120" height="120"/>
	</g>
</g>
</svg>