<svg xmlns="http://www.w3.org/2000/svg" xmlns:xlink="http://www.w3.org/1999/xlink" version="1.1" id="Your_Icon" x="0px" y="0px" width="100px" height="100px" viewBox="0 0 100 100" enable-background="new 0 0 100 100" xml:space="preserve">
<path d="M77,14H23c-4.971,0-9,4.029-9,9v54c0,4.971,4.029,9,9,9h54c4.971,0,9-4.029,9-9V23C86,18.029,81.971,14,77,14z M32,23  c4.971,0,9,4.029,9,9s-4.029,9-9,9s-9-4.029-9-9S27.029,23,32,23z M32,77c-4.971,0-9-4.029-9-9s4.029-9,9-9s9,4.029,9,9  S36.971,77,32,77z M50,59c-4.971,0-9-4.029-9-9s4.029-9,9-9s9,4.029,9,9S54.971,59,50,59z M68,77c-4.971,0-9-4.029-9-9s4.029-9,9-9  s9,4.029,9,9S72.971,77,68,77z M68,41c-4.971,0-9-4.029-9-9s4.029-9,9-9s9,4.029,9,9S72.971,41,68,41z"/>
</svg>