<svg xmlns="http://www.w3.org/2000/svg" xmlns:xlink="http://www.w3.org/1999/xlink" version="1.1" id="Layer_1" x="0px" y="0px" width="100px" height="100px" viewBox="0 0 100 100" enable-background="new 0 0 100 100" xml:space="preserve">
<g id="Captions">
</g>
<path d="M77,14H23c-4.971,0-9,4.029-9,9v54c0,4.971,4.029,9,9,9h54c4.971,0,9-4.029,9-9V23C86,18.029,81.971,14,77,14z M41,50  c0,4.971-4.029,9-9,9c4.971,0,9,4.029,9,9s-4.029,9-9,9s-9-4.029-9-9s4.029-9,9-9c-4.971,0-9-4.029-9-9s4.029-9,9-9  c-4.971,0-9-4.029-9-9s4.029-9,9-9s9,4.029,9,9s-4.029,9-9,9C36.971,41,41,45.029,41,50z M77,50c0,4.971-4.029,9-9,9  c4.971,0,9,4.029,9,9s-4.029,9-9,9s-9-4.029-9-9s4.029-9,9-9c-4.971,0-9-4.029-9-9s4.029-9,9-9c-4.971,0-9-4.029-9-9s4.029-9,9-9  s9,4.029,9,9s-4.029,9-9,9C72.971,41,77,45.029,77,50z"/>
</svg>