<svg xmlns="http://www.w3.org/2000/svg" xmlns:xlink="http://www.w3.org/1999/xlink" version="1.1" id="Layer_1" x="0px" y="0px" width="71.467px" height="71.466px" viewBox="0 0 71.467 71.466" enable-background="new 0 0 71.467 71.466" xml:space="preserve">
<path d="M53.833,5.402v9.019c0,2.047-1.665,3.713-3.712,3.713H46.96c-2.047,0-3.712-1.666-3.712-3.713V4.626h-14.11v9.699  c0,2.047-1.666,3.713-3.712,3.713h-3.162c-2.046,0-3.712-1.666-3.712-3.713V5.401C11.231,7.635,5.918,14.457,5.918,22.514v31.164  c0,9.865,7.965,17.882,17.827,17.887h24.892c9.864-0.005,17.829-8.021,17.83-17.887V22.514C66.466,14.458,61.153,7.636,53.833,5.402  z M57.218,53.678c-0.009,4.784-3.86,8.629-8.581,8.638H23.745c-4.719-0.009-8.57-3.854-8.579-8.638v-21.58  c0.009-4.785,3.86-8.63,8.579-8.639h24.892c4.721,0.009,8.572,3.854,8.581,8.639V53.678z"/>
<path d="M25.426,0h-3.162c-0.284,0-0.517,0.233-0.517,0.518v13.807c0,0.286,0.233,0.519,0.517,0.519h3.162  c0.284,0,0.517-0.233,0.517-0.519V0.519C25.943,0.233,25.71,0,25.426,0z"/>
<path d="M50.121,0.095H46.96c-0.284,0-0.518,0.233-0.518,0.518V14.42c0,0.286,0.233,0.519,0.518,0.519h3.161  c0.285,0,0.518-0.233,0.518-0.519V0.613C50.639,0.328,50.406,0.095,50.121,0.095z"/>
<path d="M47.48,32.859c-0.086-0.087-0.199-0.13-0.312-0.13c-0.114,0-0.229,0.043-0.314,0.13L33.906,45.807l-6.157-6.157  c-0.086-0.086-0.2-0.129-0.313-0.129c-0.114,0-0.227,0.043-0.313,0.129l-1.915,1.915c-0.172,0.172-0.172,0.454,0,0.627l6.448,6.449  c0.007,0.007,0.011,0.018,0.018,0.024l1.915,1.915c0.086,0.086,0.199,0.129,0.312,0.129c0.114,0,0.228-0.043,0.313-0.129  l15.181-15.18c0.172-0.172,0.172-0.455,0-0.627L47.48,32.859z"/>
</svg>