<svg xmlns="http://www.w3.org/2000/svg" xmlns:xlink="http://www.w3.org/1999/xlink" version="1.1" id="Layer_1" x="0px" y="0px" width="100px" height="100px" viewBox="0 0 100 100" enable-background="new 0 0 100 100" xml:space="preserve">
<g>
	<path d="M26.839,61.961L16.587,72.22v-9.047c0-0.941-0.763-1.715-1.704-1.715H10.49c-0.722,0-7.07-0.251-7.07-7.071V14.884   c0-0.722,0.251-7.082,7.07-7.082h61.457c0.721,0.01,7.08,0.261,7.08,7.07v5.491c0,0.94,0.765,1.705,1.706,1.705   s1.706-0.764,1.706-1.705v-5.491c0-8.293-6.862-10.479-10.492-10.479H10.49C2.197,4.393,0,11.254,0,14.873v39.514   c0,8.294,6.861,10.49,10.49,10.49h2.678v11.464c0,0.69,0.418,1.307,1.056,1.58c0.21,0.083,0.429,0.124,0.66,0.124   c0.439,0,0.878-0.167,1.203-0.502l13.168-13.168c0.668-0.669,0.668-1.746,0-2.414C28.585,61.29,27.507,61.29,26.839,61.961z"/>
	<path d="M89.509,26.334H45.612c-3.629,0-10.491,2.197-10.491,10.491v35.122c0,8.296,6.862,10.492,10.491,10.492h13.167   c0.943,0,1.706-0.765,1.706-1.706c0-0.952-0.763-1.715-1.706-1.715H45.612c-0.722,0-7.069-0.251-7.069-7.071V36.826   c0-6.809,6.348-7.07,7.069-7.07h43.897c6.819,0,7.07,6.359,7.081,7.07v35.122c0,6.82-6.359,7.071-7.081,7.071h-8.775   c-0.941,0-1.706,0.763-1.706,1.715v9.049L68.769,79.521c-0.671-0.668-1.747-0.668-2.416,0c-0.67,0.669-0.67,1.746,0,2.414   l13.168,13.169c0.335,0.336,0.764,0.504,1.213,0.504c0.219,0,0.438-0.043,0.648-0.127c0.638-0.271,1.058-0.889,1.058-1.58V82.439   h7.069c3.628,0,10.491-2.196,10.491-10.492V36.826C100,33.197,97.803,26.334,89.509,26.334z"/>
	<path d="M50.005,47.317h35.121c0.941,0,1.706-0.764,1.706-1.707c0-0.951-0.765-1.713-1.706-1.713H50.005   c-0.941,0-1.715,0.763-1.715,1.713C48.29,46.553,49.063,47.317,50.005,47.317z"/>
	<path d="M50.005,56.092h35.121c0.941,0,1.706-0.764,1.706-1.705s-0.765-1.704-1.706-1.704H50.005c-0.941,0-1.715,0.763-1.715,1.704   S49.063,56.092,50.005,56.092z"/>
	<path d="M50.005,64.877h35.121c0.941,0,1.706-0.763,1.706-1.704s-0.765-1.715-1.706-1.715H50.005c-0.941,0-1.715,0.773-1.715,1.715   S49.063,64.877,50.005,64.877z"/>
</g>
</svg>