<svg xmlns="http://www.w3.org/2000/svg" xmlns:xlink="http://www.w3.org/1999/xlink" version="1.1" id="Layer_1" x="0px" y="0px" width="100px" height="100px" viewBox="0 0 100 100" enable-background="new 0 0 100 100" xml:space="preserve">
<g id="Captions">
</g>
<rect x="20" y="20" width="60" height="60"/>
<rect x="28" y="84" width="4" height="10"/>
<rect x="36" y="84" width="4" height="10"/>
<rect x="44" y="84" width="4" height="10"/>
<rect x="52" y="84" width="4" height="10"/>
<rect x="60" y="84" width="4" height="10"/>
<rect x="68" y="84" width="4" height="10"/>
<rect x="76" y="84" width="4" height="10"/>
<rect x="20" y="84" width="4" height="10"/>
<rect x="28" y="6" width="4" height="10"/>
<rect x="36" y="6" width="4" height="10"/>
<rect x="44" y="6" width="4" height="10"/>
<rect x="52" y="6" width="4" height="10"/>
<rect x="60" y="6" width="4" height="10"/>
<rect x="68" y="6" width="4" height="10"/>
<rect x="76" y="6" width="4" height="10"/>
<rect x="20" y="6" width="4" height="10"/>
<rect x="6" y="28" width="10" height="4"/>
<rect x="6" y="36" width="10" height="4"/>
<rect x="6" y="44" width="10" height="4"/>
<rect x="6" y="52" width="10" height="4"/>
<rect x="6" y="60" width="10" height="4"/>
<rect x="6" y="68" width="10" height="4"/>
<rect x="6" y="76" width="10" height="4"/>
<rect x="6" y="20" width="10" height="4"/>
<rect x="84" y="28" width="10" height="4"/>
<rect x="84" y="36" width="10" height="4"/>
<rect x="84" y="44" width="10" height="4"/>
<rect x="84" y="52" width="10" height="4"/>
<rect x="84" y="60" width="10" height="4"/>
<rect x="84" y="68" width="10" height="4"/>
<rect x="84" y="76" width="10" height="4"/>
<rect x="84" y="20" width="10" height="4"/>
</svg>