<?xml version="1.0" encoding="utf-8"?>
<!-- Generator: Adobe Illustrator 15.1.0, SVG Export Plug-In . SVG Version: 6.00 Build 0)  -->
<!DOCTYPE svg PUBLIC "-//W3C//DTD SVG 1.1//EN" "http://www.w3.org/Graphics/SVG/1.1/DTD/svg11.dtd">
<svg version="1.1" id="Layer_1" xmlns="http://www.w3.org/2000/svg" xmlns:xlink="http://www.w3.org/1999/xlink" x="0px" y="0px"
	 width="100px" height="92.424px" viewBox="-0.141 3.789 100 92.424" enable-background="new -0.141 3.789 100 92.424"
	 xml:space="preserve">
<g>
	<path d="M65.586,42.275c-0.086-0.455-0.535-0.828-0.995-0.828H35.148c-0.461,0-0.911,0.374-0.993,0.828l-9.797,53.108
		c-0.083,0.456,0.228,0.829,0.688,0.829h49.69c0.46,0,0.771-0.373,0.689-0.829L65.586,42.275z M46.348,53.698
		c0.382,0.261,0.382,0.689,0,0.946l-11.313,7.67c-0.386,0.259-0.629,0.1-0.545-0.355l2.529-13.701
		c0.083-0.456,0.466-0.614,0.85-0.354L46.348,53.698z M40.352,45.821c-0.385-0.261-0.316-0.474,0.145-0.474H59.22
		c0.459,0,0.529,0.213,0.144,0.472l-8.845,5.999c-0.385,0.259-1.009,0.259-1.396-0.002L40.352,45.821z M49.116,56.536
		c0.386-0.259,1.011-0.259,1.396,0.003l12.646,8.641c0.384,0.26,0.384,0.688,0.004,0.952l-12.67,8.757
		c-0.383,0.266-1.007,0.266-1.386,0.001l-12.747-8.758c-0.382-0.262-0.382-0.691,0.003-0.949L49.116,56.536z M45.673,77.262
		c0.379,0.264,0.379,0.69,0,0.955L30.108,88.978c-0.381,0.266-0.624,0.107-0.54-0.349l3.523-19.084
		c0.084-0.455,0.465-0.611,0.846-0.35L45.673,77.262z M49.113,80.584c0.379-0.264,1.006-0.264,1.386,0l16.373,11.251
		c0.384,0.261,0.314,0.477-0.15,0.477H32.991c-0.46,0-0.529-0.216-0.147-0.481L49.113,80.584z M53.932,78.209
		c-0.383-0.263-0.383-0.69,0-0.956l11.86-8.201c0.384-0.267,0.762-0.108,0.846,0.347l3.574,19.276
		c0.083,0.456-0.161,0.615-0.539,0.352L53.932,78.209z M65.299,62.139c0.084,0.455-0.16,0.613-0.546,0.353l-11.466-7.838
		c-0.386-0.263-0.386-0.689,0-0.945l8.587-5.824c0.386-0.259,0.764-0.1,0.848,0.357L65.299,62.139z"/>
	<g>
		<path d="M61.269,34.034c0.062,0.348-0.178,0.633-0.525,0.633H39.037c-0.351,0-0.59-0.285-0.529-0.633l2.481-13.729
			c0.06-0.347,0.405-0.632,0.756-0.632h16.292c0.347,0,0.688,0.285,0.754,0.632L61.269,34.034z"/>
	</g>
	<g>
		<path d="M76.798,40.919l-3.746-3.421l1.712-1.872c2.087-2.283,3.239-5.242,3.239-8.332c0-3.09-1.149-6.05-3.239-8.332
			l-1.712-1.872l3.746-3.422l1.713,1.872c2.941,3.22,4.563,7.394,4.563,11.753s-1.617,8.533-4.563,11.753L76.798,40.919z"/>
	</g>
	<g>
		<path d="M89.589,50.556l-4.721-4.316l2.16-2.36c4.147-4.544,6.439-10.435,6.439-16.586s-2.292-12.042-6.439-16.586l-2.16-2.359
			l4.721-4.316l2.158,2.36c5.238,5.723,8.112,13.149,8.112,20.902c0,7.752-2.879,15.176-8.112,20.899L89.589,50.556z"/>
	</g>
	<g>
		<path d="M22.922,40.676l-1.709-1.871c-2.946-3.222-4.563-7.396-4.563-11.754c0-4.357,1.618-8.532,4.563-11.752l1.709-1.873
			l3.741,3.422l-1.708,1.872c-2.087,2.283-3.236,5.243-3.236,8.332c0,3.091,1.149,6.049,3.236,8.333l1.708,1.871L22.922,40.676z"/>
	</g>
	<g>
		<path d="M10.131,50.312l-2.157-2.36C2.741,42.229-0.141,34.804-0.141,27.05c0-7.752,2.882-15.176,8.115-20.899l2.157-2.362
			l4.722,4.316l-2.16,2.358C8.543,15.008,6.252,20.9,6.252,27.05c0,6.151,2.291,12.043,6.441,16.587l2.16,2.359L10.131,50.312z"/>
	</g>
</g>
</svg>
