<?xml version="1.0" encoding="UTF-8" standalone="no"?>
<!-- Created with Inkscape (http://www.inkscape.org/) -->

<svg
   xmlns:dc="http://purl.org/dc/elements/1.1/"
   xmlns:cc="http://creativecommons.org/ns#"
   xmlns:rdf="http://www.w3.org/1999/02/22-rdf-syntax-ns#"
   xmlns:svg="http://www.w3.org/2000/svg"
   xmlns="http://www.w3.org/2000/svg"
   xmlns:sodipodi="http://sodipodi.sourceforge.net/DTD/sodipodi-0.dtd"
   xmlns:inkscape="http://www.inkscape.org/namespaces/inkscape"
   width="25.825777mm"
   height="25.625778mm"
   viewBox="0 0 91.508659 90.800001"
   id="svg3351"
   version="1.1"
   inkscape:version="0.91 r13725"
   sodipodi:docname="noun_256164.svg">
  <defs
     id="defs3353" />
  <sodipodi:namedview
     id="base"
     pagecolor="#ffffff"
     bordercolor="#666666"
     borderopacity="1.0"
     inkscape:pageopacity="0.0"
     inkscape:pageshadow="2"
     inkscape:zoom="0.7"
     inkscape:cx="-1165.0873"
     inkscape:cy="348.39924"
     inkscape:document-units="px"
     inkscape:current-layer="layer1"
     showgrid="false"
     fit-margin-left="0.2"
     fit-margin-top="0"
     fit-margin-right="0"
     fit-margin-bottom="0"
     inkscape:window-width="3200"
     inkscape:window-height="1752"
     inkscape:window-x="0"
     inkscape:window-y="48"
     inkscape:window-maximized="1" />
  <metadata
     id="metadata3356">
    <rdf:RDF>
      <cc:Work
         rdf:about="">
        <dc:format>image/svg+xml</dc:format>
        <dc:type
           rdf:resource="http://purl.org/dc/dcmitype/StillImage" />
        <dc:title></dc:title>
      </cc:Work>
    </rdf:RDF>
  </metadata>
  <g
     inkscape:label="Layer 1"
     inkscape:groupmode="layer"
     id="layer1"
     transform="translate(-245.31988,-372.67653)">
    <path
       inkscape:connector-curvature="0"
       d="m 291.42854,463.47653 c 25,0 45.4,-20.4 45.4,-45.4 0,-25 -20.4,-45.4 -45.4,-45.4 -25,0 -45.4,20.4 -45.4,45.4 0,25 20.4,45.4 45.4,45.4 z m 0,-83.1 c 20.8,0 37.7,16.9 37.7,37.7 0,20.8 -16.9,37.7 -37.7,37.7 l 0,0 c -20.8,0 -37.7,-16.9 -37.7,-37.7 0,-20.8 16.9,-37.7 37.7,-37.7 z m 0,67.2 c 16.3,0 29.5,-13.2 29.5,-29.5 0,-16.3 -13.2,-29.5 -29.5,-29.5 -16.3,0 -29.5,13.2 -29.5,29.5 0,16.3 13.2,29.5 29.5,29.5 z m -10.3,-17.8 c 0.3,-1 0.5,-1.9 0.8,-2.9 0.3,-1.1 0.6,-1.3 1.7,-0.7 1.7,0.9 3.6,1.4 5.6,1.7 1.3,0.2 2.5,0 3.6,-0.5 2.2,-0.9 2.5,-3.5 0.7,-5 -0.6,-0.5 -1.3,-0.9 -2.1,-1.2 -1.9,-0.8 -3.9,-1.5 -5.7,-2.6 -2.9,-1.7 -4.8,-4.1 -4.5,-7.7 0.2,-4 2.5,-6.5 6.2,-7.8 1.5,-0.6 1.5,-0.5 1.5,-2.1 0,-0.5 0,-1.1 0,-1.6 0,-1.2 0.2,-1.4 1.4,-1.4 0.4,0 0.7,0 1.1,0 2.5,0 2.5,0 2.5,2.5 0,1.8 0,1.8 1.8,2.1 1.4,0.2 2.7,0.6 3.9,1.2 0.7,0.3 1,0.8 0.7,1.5 -0.3,1.1 -0.6,2.2 -1,3.3 -0.3,1 -0.7,1.2 -1.6,0.7 -2,-1 -4.1,-1.4 -6.2,-1.2 -0.6,0 -1.1,0.1 -1.7,0.3 -1.9,0.8 -2.2,2.9 -0.6,4.2 0.8,0.7 1.7,1.1 2.7,1.5 1.7,0.7 3.4,1.4 4.9,2.2 5.1,2.8 6.4,9.2 2.9,13.5 -1.3,1.6 -3,2.6 -4.9,3.2 -0.9,0.2 -1.2,0.7 -1.2,1.6 0,0.9 0,1.7 0,2.6 0,0.8 -0.4,1.2 -1.2,1.2 -0.9,0 -1.9,0 -2.8,0 -0.8,0 -1.2,-0.5 -1.2,-1.3 0,-0.6 0,-1.3 0,-1.9 0,-1.4 -0.1,-1.5 -1.4,-1.7 -1.7,-0.3 -3.4,-0.7 -5,-1.4 -1.1,-0.7 -1.3,-1 -0.9,-2.3 z"
       id="path4" />
  </g>
</svg>
