<?xml version="1.0" encoding="UTF-8" standalone="no"?>
<!-- Created with Inkscape (http://www.inkscape.org/) -->

<svg
   xmlns:dc="http://purl.org/dc/elements/1.1/"
   xmlns:cc="http://creativecommons.org/ns#"
   xmlns:rdf="http://www.w3.org/1999/02/22-rdf-syntax-ns#"
   xmlns:svg="http://www.w3.org/2000/svg"
   xmlns="http://www.w3.org/2000/svg"
   xmlns:sodipodi="http://sodipodi.sourceforge.net/DTD/sodipodi-0.dtd"
   xmlns:inkscape="http://www.inkscape.org/namespaces/inkscape"
   width="41.645416mm"
   height="21.683023mm"
   viewBox="0 0 147.5625 76.82961"
   id="svg3483"
   version="1.1"
   inkscape:version="0.91 r13725"
   sodipodi:docname="oshwa.svg">
  <defs
     id="defs3485" />
  <sodipodi:namedview
     id="base"
     pagecolor="#ffffff"
     bordercolor="#666666"
     borderopacity="1.0"
     inkscape:pageopacity="0.0"
     inkscape:pageshadow="2"
     inkscape:zoom="7.9195959"
     inkscape:cx="75.573855"
     inkscape:cy="31.198113"
     inkscape:document-units="px"
     inkscape:current-layer="layer1"
     showgrid="false"
     inkscape:window-width="3200"
     inkscape:window-height="1752"
     inkscape:window-x="0"
     inkscape:window-y="48"
     inkscape:window-maximized="1"
     fit-margin-top="0"
     fit-margin-left="0"
     fit-margin-right="0"
     fit-margin-bottom="0" />
  <metadata
     id="metadata3488">
    <rdf:RDF>
      <cc:Work
         rdf:about="">
        <dc:format>image/svg+xml</dc:format>
        <dc:type
           rdf:resource="http://purl.org/dc/dcmitype/StillImage" />
        <dc:title></dc:title>
      </cc:Work>
    </rdf:RDF>
  </metadata>
  <g
     inkscape:label="Layer 1"
     inkscape:groupmode="layer"
     id="layer1"
     transform="translate(-246.21875,-325.38482)">
    <g
       id="g3885-4-0"
       transform="translate(-466.875,55.65193)"
       style="fill:#333333;stroke:none">
      <path
         sodipodi:nodetypes="ccccccccccccccccc"
         style="color:#000000;font-style:normal;font-variant:normal;font-weight:normal;font-stretch:normal;font-size:medium;line-height:normal;font-family:Sans;-inkscape-font-specification:Sans;text-indent:0;text-align:start;text-decoration:none;text-decoration-line:none;letter-spacing:normal;word-spacing:normal;text-transform:none;direction:ltr;block-progression:tb;writing-mode:lr-tb;baseline-shift:baseline;text-anchor:start;display:inline;overflow:visible;visibility:visible;fill:#333333;fill-opacity:1;fill-rule:nonzero;stroke:none;stroke-width:6;marker:none;enable-background:accumulate"
         d="m 713.09375,278.5 0,3 0,62.0625 0,3 3,0 141.5625,0 3,0 0,-3 0,-65.0625 -5.87121,0 -0.12879,62.0625 -135.5625,0 0,-56.0625 115.34375,0 0,-6 -118.34375,0 z"
         id="path3123-3-2-9-2"
         inkscape:connector-curvature="0" />
      <path
         d="m 747.71492,313.26414 c -2e-5,-5.1406 -0.53127,-8.81247 -1.59375,-11.01562 -1.0469,-2.2031 -2.77346,-3.30466 -5.17969,-3.30469 -2.39064,3e-5 -4.1172,1.10159 -5.17969,3.30469 -1.04688,2.20315 -1.57032,5.87502 -1.57031,11.01562 -10e-6,5.12501 0.52343,8.78907 1.57031,10.99219 1.06249,2.20313 2.78905,3.30469 5.17969,3.30469 2.40623,0 4.13279,-1.09375 5.17969,-3.28125 1.06248,-2.20312 1.59373,-5.87499 1.59375,-11.01563 m 4.94531,0 c -3e-5,6.09376 -0.96878,10.64063 -2.90625,13.64063 -1.9219,3 -4.85939,4.5 -8.8125,4.5 -3.95314,0 -6.89063,-1.49219 -8.8125,-4.47657 -1.92188,-2.98436 -2.88281,-7.53905 -2.88281,-13.66406 0,-6.10935 0.96093,-10.66403 2.88281,-13.66406 1.93749,-2.99997 4.87499,-4.49996 8.8125,-4.5 3.95311,4e-5 6.8906,1.50003 8.8125,4.5 1.93747,3.00003 2.90622,7.55471 2.90625,13.66406"
         style="font-style:normal;font-variant:normal;font-weight:normal;font-stretch:normal;font-size:48px;line-height:125%;font-family:'DejaVu Sans Mono';-inkscape-font-specification:'DejaVu Sans Mono';letter-spacing:0px;word-spacing:0px;fill:#333333;fill-opacity:1;stroke:none"
         id="path3851-6-1"
         inkscape:connector-curvature="0" />
      <path
         d="m 779.09773,296.9282 0,4.80469 c -1.43752,-0.92184 -2.88283,-1.61715 -4.33594,-2.08594 -1.43752,-0.46871 -2.89064,-0.70309 -4.35937,-0.70312 -2.23439,3e-5 -4.00001,0.52347 -5.29688,1.57031 -1.29688,1.03128 -1.94532,2.42972 -1.94531,4.19531 -10e-6,1.5469 0.42187,2.72659 1.26563,3.53907 0.85936,0.81252 2.45311,1.49221 4.78125,2.03906 l 2.48437,0.5625 c 3.28123,0.76564 5.67185,1.96877 7.17188,3.60937 1.49997,1.64064 2.24997,3.87502 2.25,6.70313 -3e-5,3.32813 -1.03128,5.86719 -3.09375,7.61719 -2.06253,1.75 -5.06252,2.625 -9,2.625 -1.64064,0 -3.28908,-0.17969 -4.94532,-0.53907 -1.65625,-0.34375 -3.32032,-0.86718 -4.99218,-1.57031 l 0,-5.03906 c 1.79686,1.14063 3.49218,1.97657 5.08593,2.50781 1.60937,0.53126 3.22655,0.79688 4.85157,0.79688 2.3906,0 4.24998,-0.53125 5.57812,-1.59375 1.3281,-1.07812 1.99217,-2.57812 1.99219,-4.5 -2e-5,-1.74999 -0.46096,-3.08593 -1.38281,-4.00782 -0.90627,-0.92186 -2.49221,-1.63279 -4.75782,-2.13281 l -2.53125,-0.58594 c -3.25001,-0.73435 -5.60938,-1.84373 -7.07812,-3.32812 -1.46876,-1.48435 -2.20313,-3.47654 -2.20313,-5.97656 0,-3.12497 1.04687,-5.62497 3.14063,-7.5 2.10936,-1.89059 4.90624,-2.8359 8.39062,-2.83594 1.34374,4e-5 2.7578,0.15629 4.24219,0.46875 1.48435,0.29691 3.04685,0.75003 4.6875,1.35937"
         style="font-style:normal;font-variant:normal;font-weight:normal;font-stretch:normal;font-size:48px;line-height:125%;font-family:'DejaVu Sans Mono';-inkscape-font-specification:'DejaVu Sans Mono';letter-spacing:0px;word-spacing:0px;fill:#333333;fill-opacity:1;stroke:none"
         id="path3853-9-6"
         inkscape:connector-curvature="0" />
      <path
         d="m 787.46492,295.73289 4.75781,0 0,14.34375 12.96094,0 0,-14.34375 4.75781,0 0,34.99219 -4.75781,0 0,-16.66406 -12.96094,0 0,16.66406 -4.75781,0 0,-34.99219"
         style="font-style:normal;font-variant:normal;font-weight:normal;font-stretch:normal;font-size:48px;line-height:125%;font-family:'DejaVu Sans Mono';-inkscape-font-specification:'DejaVu Sans Mono';letter-spacing:0px;word-spacing:0px;fill:#333333;fill-opacity:1;stroke:none"
         id="path3855-7-3"
         inkscape:connector-curvature="0" />
      <path
         d="m 813.12898,295.73289 4.61719,0 3.35156,28.40625 3.98437,-18.79687 4.94532,0 4.03125,18.84375 11.35156,-54.45313 4.61719,0 -13.22657,60.99219 -4.47656,0 -4.75781,-20.78906 -4.73438,20.78906 -4.47656,0 -5.22656,-34.99219"
         style="font-style:normal;font-variant:normal;font-weight:normal;font-stretch:normal;font-size:48px;line-height:125%;font-family:'DejaVu Sans Mono';-inkscape-font-specification:'DejaVu Sans Mono';letter-spacing:0px;word-spacing:0px;fill:#333333;fill-opacity:1;stroke:none"
         id="path3857-9-4"
         inkscape:connector-curvature="0"
         sodipodi:nodetypes="cccccccccccccc" />
    </g>
  </g>
</svg>
